<!DOCTYPE svg PUBLIC "-//W3C//DTD SVG 20010904//EN" "http://www.w3.org/TR/2001/REC-SVG-20010904/DTD/svg10.dtd">
<svg version="1.0" xmlns="http://www.w3.org/2000/svg" width="600px" height="375px" viewBox="0 0 6000 3750" preserveAspectRatio="xMidYMid meet">
<g id="layer101" fill="#1c4e5f" stroke="none">
 <path d="M0 1875 l0 -1875 3000 0 3000 0 0 1875 0 1875 -3000 0 -3000 0 0 -1875z"/>
 </g>
<g id="layer102" fill="#255f73" stroke="none">
 <path d="M0 2591 l0 -1160 88 -123 c268 -372 915 -1284 919 -1295 4 -11 457 -13 2499 -13 l2494 0 0 1875 0 1875 -3000 0 -3000 0 0 -1159z"/>
 </g>
<g id="layer103" fill="#3a809a" stroke="none">
 <path d="M0 2640 c0 -610 2 -1110 4 -1110 2 0 220 36 485 80 264 44 489 80 498 79 12 0 214 -281 603 -842 l586 -842 1912 -3 1912 -2 0 1875 0 1875 -3000 0 -3000 0 0 -1110z"/>
 </g>
<g id="layer104" fill="#51907f" stroke="none">
 <path d="M0 2654 c0 -602 3 -1093 8 -1091 9 5 225 136 848 514 281 171 521 316 534 323 21 11 20 8 -11 -46 -182 -318 -367 -649 -364 -652 2 -2 50 6 107 18 56 12 231 48 388 80 157 32 372 77 479 99 107 22 196 40 197 38 3 -2 24 -1628 24 -1814 0 -97 3 -123 14 -123 12 0 62 113 528 1190 66 151 123 278 127 282 4 5 88 -108 188 -250 99 -141 277 -395 395 -563 l215 -306 12 -134 c7 -74 14 -153 18 -177 l5 -42 1144 0 1144 0 0 1875 0 1875 -3000 0 -3000 0 0 -1096z"/>
 </g>
<g id="layer105" fill="#52918e" stroke="none">
 <path d="M476 3728 c10 -13 23 -26 28 -30 10 -7 -21 -43 -323 -368 l-181 -195 0 -788 c0 -434 3 -786 7 -784 10 5 226 136 849 514 281 171 521 316 534 323 21 11 20 8 -11 -46 -182 -318 -367 -649 -364 -652 2 -2 50 6 107 18 56 12 231 48 388 80 157 32 372 77 479 99 107 22 196 40 197 38 3 -2 24 -1628 24 -1814 0 -97 3 -123 14 -123 12 0 62 113 528 1190 66 151 123 278 127 282 4 5 88 -108 188 -250 99 -141 277 -395 395 -563 l215 -306 12 -134 c7 -74 14 -153 18 -176 l5 -43 393 0 393 0 76 213 77 213 122 -33 c67 -18 174 -47 237 -64 63 -17 241 -64 395 -105 486 -131 574 -154 584 -154 8 0 11 557 11 1840 l0 1840 -2772 0 -2771 0 19 -22z"/>
 </g>
<g id="layer106" fill="#4590ac" stroke="none">
 <path d="M489 3723 c12 -16 204 -291 428 -613 224 -322 426 -612 449 -645 l42 -60 -198 -350 c-109 -192 -197 -351 -195 -353 2 -2 50 6 107 18 56 12 231 48 388 80 157 32 372 77 479 99 107 22 196 40 197 38 3 -2 24 -1628 24 -1814 0 -97 3 -123 14 -123 12 0 62 113 528 1190 66 151 123 278 127 283 4 4 84 -102 177 -235 496 -708 617 -878 624 -878 5 0 80 81 167 179 134 153 164 181 198 191 22 6 121 34 220 62 99 27 254 71 345 98 91 26 226 64 300 85 144 41 349 99 494 140 48 15 90 24 93 22 2 -3 -11 -17 -29 -31 -18 -15 -42 -35 -53 -44 -11 -10 -42 -36 -70 -57 -27 -22 -52 -43 -55 -46 -4 -5 -103 -88 -172 -144 -110 -89 -439 -368 -443 -375 -9 -14 -6 -14 218 25 249 43 738 126 950 162 l157 26 0 1549 0 1548 -2766 0 -2766 0 21 -27z"/>
 </g>
<g id="layer107" fill="#5ba293" stroke="none">
 <path d="M492 3719 c13 -17 224 -320 469 -672 l445 -640 397 -236 c218 -130 546 -335 729 -455 619 -408 1473 -979 1476 -987 2 -4 9 -6 15 -4 7 2 104 29 217 60 113 31 279 78 370 104 91 27 226 65 300 86 144 41 349 99 494 140 48 15 90 24 93 22 2 -3 -11 -17 -29 -31 -18 -15 -42 -35 -53 -44 -11 -10 -42 -36 -70 -57 -27 -22 -52 -43 -55 -46 -4 -5 -103 -88 -172 -144 -110 -89 -439 -368 -443 -375 -9 -14 -6 -14 218 25 249 43 738 126 950 162 l157 26 0 1549 0 1548 -2766 0 -2765 0 23 -31z"/>
 </g>
<g id="layer108" fill="#65a99c" stroke="none">
 <path d="M541 3724 c-12 -15 -21 -30 -21 -33 0 -4 60 -19 133 -33 72 -15 427 -88 787 -163 360 -75 726 -151 813 -168 86 -17 157 -34 157 -37 0 -3 -199 -180 -442 -392 -244 -212 -469 -410 -501 -440 l-59 -53 364 -215 c200 -118 517 -316 706 -440 476 -313 1526 -1012 1532 -1020 3 -4 79 15 170 41 91 26 311 88 490 139 179 50 443 125 588 166 144 42 269 74 276 72 12 -3 280 -288 419 -445 l47 -54 0 1550 0 1551 -2719 0 -2720 0 -20 -26z"/>
 </g>
<g id="layer109" fill="#5facb8" stroke="none">
 <path d="M2255 3733 c38 -96 165 -432 165 -436 0 -4 -143 -131 -317 -284 -175 -152 -403 -351 -506 -442 -134 -116 -185 -167 -175 -172 7 -5 185 -111 395 -236 390 -233 609 -374 1625 -1051 l577 -385 373 106 c205 58 542 153 748 212 206 58 380 107 387 110 9 3 241 -241 440 -464 l32 -36 1 1548 0 1547 -1876 0 c-1783 0 -1876 -1 -1869 -17z"/>
 </g>
<g id="layer110" fill="#5bafcf" stroke="none">
 <path d="M2255 3733 c4 -10 43 -112 87 -226 l80 -209 -112 -661 c-61 -364 -112 -671 -113 -681 -2 -15 71 -68 323 -233 179 -118 589 -390 912 -605 l587 -391 373 106 c205 58 542 153 748 212 206 58 380 107 387 110 9 3 241 -241 440 -464 l32 -36 1 1548 0 1547 -1876 0 c-1783 0 -1876 -1 -1869 -17z"/>
 </g>
<g id="layer111" fill="#70bdb7" stroke="none">
 <path d="M2255 3733 c4 -10 43 -112 87 -226 l80 -209 -115 -676 c-63 -373 -113 -678 -112 -680 1 -1 204 70 450 158 246 89 451 160 456 158 4 -2 101 -160 215 -353 114 -192 315 -532 446 -755 132 -223 243 -409 248 -414 5 -5 163 35 382 97 205 58 542 153 748 212 206 58 380 107 387 110 9 3 241 -241 440 -464 l32 -36 1 1548 0 1547 -1876 0 c-1783 0 -1876 -1 -1869 -17z"/>
 </g>
<g id="layer112" fill="#6abacb" stroke="none">
 <path d="M2476 3718 c-3 -18 -12 -89 -21 -158 -9 -69 -18 -145 -21 -170 -4 -25 -8 -58 -10 -75 -2 -16 -55 -331 -117 -700 -63 -368 -113 -671 -112 -673 1 -1 204 70 450 158 246 89 451 160 456 158 4 -2 101 -160 215 -353 114 -192 315 -532 446 -755 132 -223 243 -408 247 -413 4 -4 29 -1 57 7 27 8 173 49 324 91 151 43 390 110 530 150 140 40 338 96 438 124 101 29 185 51 186 49 6 -8 222 -244 232 -253 6 -5 59 -63 117 -127 l107 -117 0 1544 0 1545 -1760 0 -1759 0 -5 -32z"/>
 </g>
<g id="layer113" fill="#73c5ba" stroke="none">
 <path d="M2476 3718 c-3 -18 -13 -91 -21 -163 -9 -71 -20 -155 -25 -186 -5 -31 -8 -63 -7 -70 2 -12 517 -789 624 -942 19 -27 181 -297 360 -600 556 -941 604 -1021 607 -1024 1 -2 25 3 52 11 27 8 173 49 324 91 151 43 390 110 530 150 140 40 338 96 438 124 101 29 185 51 186 49 6 -8 222 -244 232 -253 6 -5 59 -63 117 -127 l107 -117 0 1544 0 1545 -1760 0 -1759 0 -5 -32z"/>
 </g>
<g id="layer114" fill="#78c5ce" stroke="none">
 <path d="M2485 3738 c-2 -7 -13 -92 -25 -188 -11 -96 -23 -191 -26 -210 l-6 -35 54 55 c29 31 100 107 158 170 58 63 127 138 154 167 l49 53 -177 0 c-133 0 -178 -3 -181 -12z"/>
 <path d="M3286 3728 c-3 -13 -12 -81 -21 -153 -14 -124 -29 -249 -109 -905 -19 -157 -38 -312 -42 -346 l-6 -61 327 -554 c181 -305 380 -642 443 -749 63 -107 120 -203 127 -213 11 -16 17 -11 50 50 36 65 811 1439 1089 1930 72 128 134 233 137 233 3 0 11 -39 17 -87 6 -49 29 -221 52 -383 22 -162 56 -407 75 -545 90 -661 107 -780 110 -784 2 -2 107 93 234 210 l231 214 0 1083 0 1082 -1355 0 -1355 0 -4 -22z"/>
 </g>
<g id="layer115" fill="#86d7bd" stroke="none">
 <path d="M3286 3728 c-3 -13 -12 -81 -21 -153 -8 -71 -28 -240 -45 -375 -52 -433 -100 -824 -106 -877 -4 -36 -3 -53 5 -53 6 0 489 156 1073 346 585 191 1070 347 1078 348 11 1 18 -21 27 -89 7 -49 31 -223 53 -385 22 -162 56 -407 75 -545 90 -661 107 -780 110 -784 2 -2 107 93 234 210 l231 214 0 1083 0 1082 -1355 0 -1355 0 -4 -22z"/>
 </g>
<g id="layer116" fill="#8ee4ae" stroke="none">
 <path d="M4186 3741 c5 -5 115 -82 244 -172 129 -90 309 -215 400 -278 91 -63 230 -160 310 -216 80 -56 152 -100 160 -97 13 3 13 2 1 -6 -12 -8 -12 -23 -2 -93 23 -156 40 -283 76 -544 41 -301 80 -587 100 -730 15 -104 52 -382 57 -424 3 -21 32 2 235 190 l232 214 0 1083 1 1082 -912 0 c-519 0 -908 -4 -902 -9z m1571 -628 c-4 -3 -10 -3 -14 0 -3 4 0 7 7 7 7 0 10 -3 7 -7z m-60 -20 c-4 -3 -10 -3 -14 0 -3 4 0 7 7 7 7 0 10 -3 7 -7z m-100 -30 c-4 -3 -10 -3 -14 0 -3 4 0 7 7 7 7 0 10 -3 7 -7z m-160 -50 c-4 -3 -10 -3 -14 0 -3 4 0 7 7 7 7 0 10 -3 7 -7z"/>
 </g>
<g id="layer117" fill="#8cd8c6" stroke="none">
 <path d="M5755 3115 c-22 -7 -123 -39 -225 -70 -230 -70 -240 -74 -240 -93 0 -8 4 -43 10 -76 5 -34 21 -146 35 -251 14 -104 37 -271 51 -370 13 -99 36 -263 50 -365 14 -102 32 -230 39 -285 15 -104 52 -382 57 -424 3 -21 32 2 235 190 l232 214 0 717 1 717 -94 56 c-52 30 -98 55 -103 54 -4 -1 -26 -7 -48 -14z"/>
 </g>

</svg>